<svg id="Capa_1" data-name="Capa 1" xmlns="http://www.w3.org/2000/svg" viewBox="0 0 1113.49 736.7"><defs><style>.cls-1{fill:#ee88a9;}.cls-2{font-size:285.23px;fill:#9f7f6c;font-family:BaskervilleMTStd-Italic, Baskerville MT Std;font-style:italic;}.cls-3{font-size:58.27px;font-family:BaskervilleMTStd-Regular, Baskerville MT Std;}.cls-4{letter-spacing:-0.03em;}</style></defs><path class="cls-1" d="M1025.68,360.57c-20.5.1-38.45,9.46-57.23,15.77C951.62,382,935.16,389,917.27,390.83c-13.62,1.4-21.75-2.32-25.55-11.43-4.18-10-.74-22.11,9.19-29.77,13.51-10.43,29.7-15.34,45.54-20.75,28.4-9.69,57-18.91,85.4-28.51a107.9,107.9,0,0,0,28-14c13.74-9.72,20.12-24.24,16.19-36.76-4-12.88-21.23-24-36.34-24.17-5.65-.08-5.08,2.65-4.86,6.5.59,10-1.14,19.45-7.09,27.79-6.56,9.21-18,12.26-26.65,7.14-8.21-4.85-10.53-15.85-5.28-26,3.56-6.9,8.05-13,16-15.31,6.95-2,6.66-6.25,4.25-11.91-10.39-24.45-36.47-34.58-63.26-24.19-11.39,4.41-20.39,11.94-27.42,21.92-3.88,5.51-5.14,9.28,3.52,11.67,9.71,2.67,17.29,9,22.12,18.1,5.06,9.51,3.08,20.18-4.52,25.45s-19.81,2.94-26.28-5.31c-5.31-6.76-8.36-14.6-8.15-23.29.1-4.63-1.69-5.86-6.06-6.13-16.55-1-35.95,8.61-41.87,22.78-6.64,15.93-4.94,31.63,6.25,45.3,11.05,13.51,23.55,13.26,34.26-.35,3-3.84,6.1-6.68,11.34-5.8a6.44,6.44,0,0,1,5.4,5.71c.87,5.3-1.67,9.45-5.77,12.66-14.28,11.17-40.18,5.6-52-11.14-22.57-32-1.54-76.92,38.25-80.66,8.76-.82,13.57-3.4,18.47-11.29,25.28-40.75,85.22-38.64,108.28,3.5,3,5.44,6.09,7.06,11.93,7.35,21.42,1.09,40.13,14.71,44.94,32,5.06,18.14-2.93,38.17-20.7,51.11-19.25,14-41.8,20.66-63.91,28.28-26.06,9-52.93,15.61-78.18,26.91-7.51,3.36-15.07,6.64-20.55,13.48-2.47,3.09-4.11,5.63-2.07,9.14,1.82,3.12,4.56,4.25,8.52,4.63,15,1.45,28.42-4.41,42-8.79,23.11-7.46,45.46-17.19,69.63-21.37,10.09-1.75,21.1.74,25,7.53,5.32,9.25,3.67,17-6.19,25.64-11.72,10.3-26.06,16.1-40.11,22.29-16.28,7.18-32.9,13.64-48.93,21.34-12.27,5.9-16.71,11.71-6.74,27.05,7.08,10.9,15.75,20.43,25,29.55,3.69,3.65,6.61,4.25,10.28.14,4.65-5.21,9.62-10.13,14.42-15.19,5.91-6.24,7.5-12.94,3.16-20.94-2.77-5.1-4.12-10.67,2-14.86,4.13-2.83,8.68-3.45,12.64-.25,5.07,4.11,5.13,10,2.71,15.34-7.92,17.54-20.61,31.37-35.16,43.67-3.64,3.07-6.89,2.54-10.23-.43-16.32-14.53-30.47-30.8-39.4-51-4.47-10.1-1.49-17.59,9.24-24.85,11.94-8.07,25.57-12.72,38.74-18.29,16.71-7.06,34-12.86,49.9-21.69a64.22,64.22,0,0,0,8-5c3.42-2.61,6.47-5.75,5-10.6s-5.84-4-9.6-4.14C1028.48,360.53,1027.08,360.57,1025.68,360.57Zm-5.1-124.27c-2.51-1.2,3.41-7.46-3.85-6.68-7.81.84-18.7,15.61-17.69,23.57.42,3.29,1.57,6.16,5,7.31s6.08-.21,8.5-2.53C1018.49,252.24,1019.83,244.78,1020.58,236.3ZM918,239.6c1.53,8.6,3.64,16.71,11.75,22.14,3.87,2.59,7.07,2.21,10.32.18,3.51-2.2,3.16-5.54,2-9.22-3.08-9.51-10.28-14.46-19-17.83C918.44,233.11,917.52,235.65,918,239.6Z" transform="translate(-361.51 -179.65)"/><text class="cls-2" transform="translate(280.37 514.65)">Sweet</text><text class="cls-3" transform="translate(498.14 612.78)"><tspan class="cls-4">P</tspan><tspan x="31.17" y="0">asteleria</tspan></text></svg>